<svg width="436" height="898" viewBox="0 0 436 898" fill="none" xmlns="http://www.w3.org/2000/svg">
<g opacity="0.1">
<path d="M325.43 599.469C216.82 499.67 202.791 351.452 293.822 268.405C384.853 185.358 546.685 198.734 655.295 298.533C763.906 398.332 777.934 546.549 686.904 629.596C595.873 712.644 434.041 699.268 325.43 599.469Z" stroke="white"/>
<path d="M314.696 609.26C201.912 505.626 189.281 349.908 286.248 261.445C383.215 172.982 553.245 185.105 666.029 288.739C778.813 392.373 791.443 548.091 694.476 636.554C597.509 725.017 427.48 712.894 314.696 609.26Z" stroke="white"/>
<path d="M303.962 619.053C187.004 511.584 175.772 348.365 278.675 254.487C381.577 160.609 559.805 171.477 676.763 278.947C793.721 386.416 804.952 549.636 702.05 643.514C599.147 737.392 420.92 726.523 303.962 619.053Z" stroke="white"/>
<path d="M293.228 628.846C172.094 517.54 162.264 346.82 271.101 247.527C379.939 148.235 566.363 157.849 687.496 269.155C808.63 380.461 818.461 551.18 709.624 650.473C600.786 749.765 414.361 740.152 293.228 628.846Z" stroke="white"/>
<path d="M282.495 638.639C157.186 523.496 148.757 345.275 263.529 240.569C378.3 135.863 572.922 144.219 698.231 259.362C823.541 374.506 831.969 552.726 717.198 657.433C602.426 762.139 407.804 753.782 282.495 638.639Z" stroke="white"/>
<path d="M271.761 648.431C142.275 529.451 135.249 343.73 255.955 233.61C376.66 123.49 579.48 130.589 708.965 249.569C838.451 368.55 845.476 554.271 724.771 664.391C604.065 774.511 401.246 767.412 271.761 648.431Z" stroke="white"/>
<path d="M261.027 658.224C127.365 535.406 121.743 342.184 248.382 226.651C375.021 111.118 586.037 116.958 719.7 239.777C853.362 362.596 858.984 555.817 732.345 671.35C605.705 786.884 394.69 781.043 261.027 658.224Z" stroke="white"/>
<path d="M250.292 668.016C112.452 541.359 108.235 340.637 240.807 219.691C373.38 98.7452 592.592 103.327 730.432 229.984C868.272 356.641 872.489 557.363 739.917 678.309C607.344 799.255 388.132 794.673 250.292 668.016Z" stroke="white"/>
</g>
</svg>
