<svg width="13" height="7" viewBox="0 0 13 7" fill="none" xmlns="http://www.w3.org/2000/svg">
<path d="M6.125 7C5.88802 7 5.67839 6.91797 5.49609 6.75391L0.246094 1.50391C0.0820312 1.32161 0 1.11198 0 0.875C0 0.638021 0.0820312 0.428385 0.246094 0.246094C0.428385 0.0820312 0.638021 0 0.875 0C1.11198 0 1.32161 0.0820312 1.50391 0.246094L6.125 4.89453L10.7461 0.246094C10.9284 0.0820312 11.138 0 11.375 0C11.612 0 11.8216 0.0820312 12.0039 0.246094C12.168 0.428385 12.25 0.638021 12.25 0.875C12.25 1.11198 12.168 1.32161 12.0039 1.50391L6.75391 6.75391C6.57161 6.91797 6.36198 7 6.125 7Z" fill="#C5A059"/>
</svg>
