<svg width="269" height="203" viewBox="0 0 269 203" fill="none" xmlns="http://www.w3.org/2000/svg">
<path d="M-161.537 116.326C-158.575 114.981 -166.761 98.9796 -130.273 86.6188C-93.7861 74.258 -68.899 81.6334 -65.4025 81.092C-61.9471 80.5691 -45.6985 48.2295 22.6279 39.8271C90.9543 31.4248 162.201 47.1838 178.985 73.4738C194.328 97.5045 182.44 113.693 184.209 114.739C185.937 115.784 218.969 115.261 238.056 129.191C257.143 143.12 250.232 151.802 250.232 151.802L128.635 168.887H-65.9373C-65.9373 168.887 -237.35 148.385 -239.077 144.707C-240.805 141.029 -236.897 129.079 -208.966 121.834C-184.696 115.542 -166.761 118.697 -161.537 116.326Z" fill="#E4EAEE"/>
<path d="M-113.367 173.35C-113.367 173.35 -178.279 179.511 -222.171 164.088C-248.58 154.79 -238.954 139.722 -238.954 139.722C-238.954 139.722 -220.032 148.404 -181.817 150.757C-143.602 153.128 -100.738 152.325 -100.738 152.325C-100.738 152.325 -90.0432 160.615 -49.7713 164.425C0.702164 169.186 27.317 157.46 27.317 157.46C27.317 157.46 41.1386 164.966 89.8021 165.489C138.466 166.012 165.739 150.589 170.305 150.234C172.608 150.066 186.018 155.593 212.592 153.651C237.891 151.802 251.219 146.817 251.219 146.817C251.219 146.817 254.88 159.178 229.417 166.796C209.548 172.734 174.994 173.368 174.994 173.368C174.994 173.368 169.729 182.536 145.993 189.202C123.945 195.42 85.9353 197.492 57.7985 193.683C22.463 188.903 13.701 181.603 13.701 181.603C13.701 181.603 -12.6258 188.605 -53.7615 186.233C-92.6347 184.03 -113.367 173.35 -113.367 173.35Z" fill="#BACDD2"/>
</svg>
