<svg width="433" height="173" viewBox="0 0 433 173" fill="none" xmlns="http://www.w3.org/2000/svg">
<path d="M369.762 86.9922H369.727C369.727 86.8783 369.762 86.7644 369.762 86.6506C369.762 71.1163 343.088 58.5099 310.142 58.5099C305.903 58.5099 301.767 58.7213 297.804 59.128C285.984 45.5619 257.759 35.9973 224.744 35.9973C199.966 35.9973 177.875 41.3977 163.401 49.8237C153.791 47.5182 143.165 46.3144 132.385 46.3101C96.7163 46.3101 67.4233 59.128 64.0116 75.5407C25.2414 76.5167 -5.87809 91.5142 -6.39503 110.139C-6.94642 129.529 25.9651 145.469 67.0442 145.713C70.2492 145.73 73.3508 145.632 76.4525 145.453C92.3396 161.264 126.423 172.195 165.951 172.195C189.799 172.195 211.648 168.21 228.742 161.589C241.803 166.16 257.931 168.893 275.438 168.893C311.348 168.893 341.571 157.523 350.98 141.989C356.907 142.916 363.214 143.436 369.796 143.436C402.811 143.436 429.588 130.797 429.588 115.214C429.554 99.6311 402.811 86.9922 369.762 86.9922Z" fill="#E3EBEE"/>
<path d="M404.913 92.3763C418.457 98.834 408.876 113.636 399.572 118.467C381.238 127.951 347.602 125.738 334.093 124.372C330.44 123.998 329.854 124.128 328.648 124.47C327.58 124.779 327.097 125.267 325.925 126.422C321.583 130.846 310.348 139.418 286.638 142.867C261.929 146.462 238.632 140.98 227.742 137.71C223.607 136.474 223.434 136.442 221.573 136.458C219.678 136.474 217.817 137.125 215.577 137.954C205.721 141.614 183.217 148.072 148.513 147.129C114.499 146.201 95.0277 136.312 88.342 131.22C87.0669 130.244 85.6884 129.431 84.1032 129.35C82.2767 129.268 80.2434 130.147 78.727 130.862C64.2529 137.515 18.6936 139.516 3.59912 128.178C18.9693 139.809 42.7139 145.567 67.0788 145.713C70.2838 145.73 73.3854 145.632 76.487 145.453C92.3741 161.264 126.457 172.195 165.986 172.195C189.834 172.195 211.683 168.21 228.776 161.589C241.837 166.16 257.966 168.893 275.473 168.893C311.382 168.893 341.606 157.523 351.014 141.989C356.942 142.916 363.248 143.436 369.831 143.436C402.845 143.436 429.623 130.797 429.623 115.214C429.554 106.918 420.731 97.549 404.913 92.3763Z" fill="#B9CDD2"/>
</svg>
